<?xml version="1.0" standalone="no"?>
<!DOCTYPE svg PUBLIC "-//W3C//DTD SVG 20010904//EN"
 "http://www.w3.org/TR/2001/REC-SVG-20010904/DTD/svg10.dtd">
<svg version="1.0" xmlns="http://www.w3.org/2000/svg"
 width="500.000000pt" height="500.000000pt" viewBox="0 0 500.000000 500.000000"
 preserveAspectRatio="xMidYMid meet">
<metadata>
Created by potrace 1.14, written by Peter Selinger 2001-2017
</metadata>
<g transform="translate(0.000000,500.000000) scale(0.100000,-0.100000)"
fill="#000000" stroke="none">
<path d="M2380 3593 c-146 -29 -1613 -357 -1638 -366 -54 -19 -108 -73 -141
-139 l-31 -61 0 -427 c0 -487 1 -496 74 -577 24 -27 59 -57 78 -66 51 -27
1616 -377 1725 -386 172 -15 239 -3 1088 189 873 197 856 192 922 278 60 80
63 102 63 552 0 453 -2 471 -65 552 -22 28 -57 57 -88 72 -38 20 -264 73 -847
203 l-795 176 -160 3 c-88 1 -171 0 -185 -3z m-770 -479 c0 -6 -17 -15 -37
-20 -64 -15 -57 -39 57 -212 55 -84 104 -151 109 -148 16 10 151 215 167 252
28 67 5 95 -90 109 -25 4 -46 12 -46 19 0 8 64 11 225 11 172 0 225 -3 225
-12 0 -7 -18 -16 -40 -19 -44 -7 -138 -60 -184 -102 -36 -34 -229 -292 -229
-307 0 -13 232 -363 280 -422 44 -55 109 -99 167 -115 95 -25 52 -34 -184 -35
-194 -1 -230 1 -230 13 0 9 10 14 28 14 40 0 66 21 58 48 -4 11 -56 96 -117
188 l-110 167 -79 -114 c-91 -131 -120 -184 -120 -222 0 -35 37 -59 101 -65
31 -3 49 -9 49 -18 0 -10 -47 -12 -230 -12 -174 1 -230 4 -230 13 0 7 18 15
41 19 52 8 123 45 176 91 48 41 257 322 257 345 0 8 -60 104 -133 213 -142
211 -187 259 -278 293 -57 21 -56 20 -50 31 8 13 447 10 447 -3z m979 -152
c24 -64 47 -121 51 -125 4 -5 13 6 19 25 6 18 28 75 47 126 l36 92 54 0 c43 0
54 -3 54 -16 0 -23 29 -341 35 -386 l5 -38 -49 0 -49 0 -6 65 c-3 36 -9 95
-12 131 -8 80 -11 76 -63 -80 -37 -107 -39 -111 -67 -111 -28 0 -30 4 -75 129
-25 71 -48 125 -51 120 -3 -5 -9 -64 -13 -131 l-7 -123 -49 0 c-28 0 -49 5
-49 11 0 24 31 366 36 397 5 31 6 32 57 32 l52 0 44 -118z m524 -56 c15 -8 27
-11 27 -5 0 5 20 9 45 9 l45 0 0 -135 0 -135 -45 0 c-34 0 -45 4 -45 15 0 13
-3 13 -26 -1 -33 -22 -105 -22 -139 0 -29 19 -64 87 -65 125 0 38 39 110 68
126 35 18 100 19 135 1z m455 -20 c25 -24 27 -33 30 -136 l4 -110 -51 0 -51 0
0 93 c0 101 -7 117 -51 117 -44 0 -59 -32 -59 -127 l0 -83 -45 0 -45 0 0 135
0 135 44 0 c25 0 46 -5 48 -12 3 -8 12 -7 29 6 36 26 113 17 147 -18z"/>
<path d="M3060 2843 c-51 -19 -66 -77 -30 -113 41 -41 110 -10 110 49 0 20 -9
36 -26 50 -28 22 -30 23 -54 14z"/>
</g>
</svg>
